<svg width="51" height="54" viewBox="0 0 51 54" fill="none" xmlns="http://www.w3.org/2000/svg">
<g filter="url(#filter0_i_34_7)">
<path d="M24.6266 0H26.3645C26.6448 0.0841074 27.3115 0.101394 27.6276 0.141311C35.0401 1.07801 41.0176 7.1117 41.8301 14.4623C42.0483 16.4354 41.9439 18.4041 41.4219 20.3199C41.077 21.582 40.5979 22.8045 39.9925 23.9666C39.8481 24.2413 39.6797 24.5077 39.532 24.7769C38.7531 26.1967 36.9749 27.8722 37.9819 29.6043C38.5812 30.6352 40.0919 31.2657 41.2063 31.5486C42.1739 31.7885 43.1627 31.9354 44.1591 31.9866C44.8756 32.0219 45.4712 31.9874 46.1904 32.1092C47.8687 32.4011 49.3335 33.4062 50.1979 34.8593C50.9795 36.1803 51.2009 37.7539 50.8135 39.236C50.4159 40.7265 49.4348 41.999 48.0867 42.7721C46.6147 43.6153 45.3268 43.629 43.7021 43.4531C42.9818 43.3782 42.2655 43.2712 41.5551 43.1325C41.1493 43.0566 40.3909 42.8667 40.0191 42.8319C40.0493 42.8915 40.9036 43.519 41.0187 43.5987C45.1376 46.4513 43.6195 52.6342 38.9237 53.8244C38.69 53.8837 38.3761 53.9198 38.149 54H36.9635C36.8518 53.9425 36.3466 53.8318 36.1966 53.7938C35.8264 53.6986 35.4699 53.5578 35.1352 53.3751C31.9562 51.6143 29.9589 49.4063 27.8088 46.5354L26.5896 44.8996C26.3037 44.5165 25.8424 43.9008 25.5043 43.5612L25.4848 43.5417C24.3861 44.8588 23.4628 46.2072 22.4203 47.5443C20.7633 49.6478 18.8587 51.6122 16.5261 52.9828C15.8908 53.3561 15.3353 53.7129 14.5962 53.8489C14.445 53.8766 14.1694 53.9412 14.0318 54H12.772C12.6018 53.9346 12.1995 53.8589 12.0022 53.8096C11.4361 53.6694 10.8966 53.4394 10.4045 53.1291C9.03068 52.2719 8.06296 50.9042 7.71899 49.3338C7.11862 46.6214 8.41225 44.5524 10.6208 43.1209C10.7084 43.0642 10.883 42.9532 10.9363 42.8709C10.8694 42.8185 10.7494 42.8564 10.6626 42.877C9.11055 43.2406 7.21234 43.5757 5.62013 43.5388C4.69928 43.5127 3.79843 43.2667 2.99437 42.8219C1.63583 42.0752 0.634399 40.8233 0.212032 39.3433C-0.201875 37.858 -0.00488361 36.2712 0.759972 34.9291C1.64782 33.364 3.23076 32.3056 5.02965 32.0746C5.70948 31.985 6.33205 32.0227 7.0071 31.975C7.99538 31.9051 9.00718 31.7672 9.96726 31.5004C11.0592 31.1924 12.4592 30.5793 13.0421 29.5531C13.9172 27.9529 12.4481 26.3743 11.6461 25.0933C8.63878 20.2857 8.19462 14.5017 10.648 9.35803C13.0506 4.32095 17.8368 0.842287 23.4303 0.13942C23.7533 0.0988348 24.3532 0.0822074 24.6266 0ZM31.1615 20.3885C32.3681 20.2945 33.2709 19.2528 33.1806 18.0585C33.0903 16.8642 32.0412 15.9669 30.8338 16.0516C29.6197 16.1368 28.7068 17.182 28.7976 18.3829C28.8885 19.5838 29.9483 20.483 31.1615 20.3885ZM20.1827 20.3712C21.3842 20.2648 22.27 19.2134 22.1598 18.0249C22.0496 16.8363 20.9851 15.9621 19.7841 16.0738C18.5869 16.1852 17.7068 17.2345 17.8167 18.4193C17.9266 19.6042 18.9851 20.4774 20.1827 20.3712Z" fill="url(#paint0_radial_34_7)"/>
</g>
<defs>
<filter id="filter0_i_34_7" x="0" y="0" width="51" height="54" filterUnits="userSpaceOnUse" color-interpolation-filters="sRGB">
<feFlood flood-opacity="0" result="BackgroundImageFix"/>
<feBlend mode="normal" in="SourceGraphic" in2="BackgroundImageFix" result="shape"/>
<feColorMatrix in="SourceAlpha" type="matrix" values="0 0 0 0 0 0 0 0 0 0 0 0 0 0 0 0 0 0 127 0" result="hardAlpha"/>
<feOffset/>
<feGaussianBlur stdDeviation="0.5"/>
<feComposite in2="hardAlpha" operator="arithmetic" k2="-1" k3="1"/>
<feColorMatrix type="matrix" values="0 0 0 0 0.0680207 0 0 0 0 0.799204 0 0 0 0 0.742959 0 0 0 1 0"/>
<feBlend mode="normal" in2="shape" result="effect1_innerShadow_34_7"/>
</filter>
<radialGradient id="paint0_radial_34_7" cx="0" cy="0" r="1" gradientTransform="matrix(-26.1145 46.6364 -44.0031 -24.6135 33.6928 7.36364)" gradientUnits="userSpaceOnUse">
<stop stop-color="#C0F4DA" style="stop-color:#C0F4DA;stop-color:color(display-p3 0.7537 0.9582 0.8559);stop-opacity:1;"/>
<stop offset="0.534554" stop-color="#10D8BE" style="stop-color:#10D8BE;stop-color:color(display-p3 0.0612 0.8483 0.7434);stop-opacity:1;"/>
<stop offset="0.966055" stop-color="#1DFAD9" style="stop-color:#1DFAD9;stop-color:color(display-p3 0.1150 0.9818 0.8518);stop-opacity:1;"/>
</radialGradient>
</defs>
</svg>
